<?xml version="1.0" encoding="UTF-8"?>
<!DOCTYPE svg PUBLIC "-//W3C//DTD SVG 1.1//EN" "http://www.w3.org/Graphics/SVG/1.1/DTD/svg11.dtd">
<!-- Creator: CorelDRAW 2020 (64 Bit) -->
<svg xmlns="http://www.w3.org/2000/svg" xml:space="preserve" width="5.5mm" height="5mm" version="1.1" style="shape-rendering:geometricPrecision; text-rendering:geometricPrecision; image-rendering:optimizeQuality; fill-rule:evenodd; clip-rule:evenodd"
viewBox="0 0 550 500"
 xmlns:xlink="http://www.w3.org/1999/xlink"
 xmlns:xodm="http://www.corel.com/coreldraw/odm/2003">
 <defs>
  <style type="text/css">
   <![CDATA[
    .fil0 {fill:#747488}
   ]]>
  </style>
 </defs>
 <g id="Camada_x0020_1">
  <metadata id="CorelCorpID_0Corel-Layer"/>
  <path class="fil0" d="M107.45 122.18l-0.42 0.32 -1.32 1.02 -1.74 1.35 -1.73 1.37 -0.34 0.26 -1.39 1.12 -1.71 1.4 -0.1 0.08 -1.61 1.34 -1.7 1.42 -1.48 1.26 -0.21 0.19 -1.69 1.46 -1.68 1.47 -0.36 0.31 -1.31 1.18 -1.66 1.51 -0.92 0.83 -0.74 0.69 -1.64 1.53 -1.47 1.38 -0.17 0.17 -1.63 1.57 -1.63 1.58 -0.37 0.36 -1.24 1.23 -1.61 1.61 -0.91 0.92 -0.68 0.71 -1.59 1.64 -1.44 1.5 -0.14 0.16 -0.58 0.61 -2.56 2.74 -0.38 0.42 -2.72 3 -0.9 1.01 -0.04 0.05 -2.12 2.42 -1.4 1.62 -0.12 0.14 -1.51 1.78 -1.5 1.79 -0.39 0.46 -1.1 1.34 -2.29 2.83 -0.07 0.09 -0.59 0.74 -1.46 1.85 -1.37 1.75 -0.09 0.12 -1.44 1.88 -1.43 1.89 -0.4 0.53 -1.02 1.38 -2.2 3.01 -0.08 0.11 -0.54 0.75 -1.39 1.96 -1.32 1.87 -0.06 0.1 -0.42 0.6c-1.98,2.86 -3.93,5.77 -5.85,8.72l-0.49 0.75 -2.31 3.63 -0.28 0.44 -0.04 0.07 -1.3 2.09 -1.28 2.1 -0.4 0.65 -0.88 1.47c-1.62,2.71 -3.22,5.47 -4.78,8.26l-0.19 0.33 -0.02 0.04 -1.22 2.19 -1.21 2.21 -0.39 0.71 -0.28 0.52 -1.71 3.23 -0.78 1.49 -2.71 5.31c-3.72,7.45 -3.72,16.21 0,23.66l0.68 1.35 0.68 1.34 0.35 0.69 0.33 0.65 0.69 1.33 0.69 1.32 0.02 0.05 0.68 1.27 0.7 1.32 0.39 0.73 0.32 0.58 0.71 1.31 0.71 1.3 0.04 0.09 2.85 5.06 0.73 1.28 0.07 0.13 0.67 1.14 0.74 1.26 3 5.01 0.76 1.24c35.3,57.34 82.85,98.07 135.61,121.44l1.65 0.73 0.07 0.03 1.58 0.68 1.66 0.7 1.29 0.54 0.37 0.15 3.33 1.35 0.86 0.34 0.81 0.32 3.35 1.28 0.42 0.16 0.1 0.04 4.51 1.63 0.01 0.01c4.49,1.59 9.02,3.06 13.57,4.4l0.35 0.1 4.68 1.33 0.1 0.03 4.53 1.2 0.07 0.02 0.55 0.14 3.45 0.85 0.71 0.17 1.01 0.24 3.46 0.78 0.27 0.06 0.06 0.01 4.68 0.98 0.19 0.04 3.48 0.66 1.09 0.2 0.65 0.12 3.48 0.6 0.64 0.1 4.6 0.71 0.18 0.02 4.8 0.65 0.28 0.04 3.51 0.41 1.01 0.11 0.74 0.08 3.52 0.35 0.55 0.05 1.21 0.1 1.76 0.15 1.76 0.13 0.09 0.01 1.67 0.11 1.76 0.11 1.39 0.08 0.38 0.02 3.53 0.16 0.93 0.04 0.83 0.03 3.54 0.09 0.46 0.01 1.3 0.02 1.77 0.01 1.77 0.01 1.69 -0.01 1.68 -0.01 1.47 -0.02 0.22 -0.01 0.45 -0.01 2.91 -0.07 1.25 -0.04 0.44 -0.02 1.68 -0.07 1.68 -0.08 1.04 -0.05 0.64 -0.03 3.36 -0.21 0.82 -0.06 0.86 -0.07 1.68 -0.13 1.68 -0.14 0.6 -0.05 1.07 -0.1c2.8,-0.26 5.59,-0.57 8.37,-0.92l0.17 -0.02 0.14 -0.02 3.03 -0.4 1.63 -0.23 0.04 0 1.66 -0.25 3.08 -0.48 0.25 -0.04 1.67 -0.28 2.85 -0.5 0.47 -0.08 3.31 -0.63 0.98 -0.19 0.68 -0.14 1.65 -0.34 1.65 -0.35 0.76 -0.16 0.89 -0.2 1.65 -0.37 1.64 -0.38 0.56 -0.13 1.09 -0.26 3.28 -0.81 0.34 -0.09 1.3 -0.34 3.27 -0.87 0.13 -0.04 3.13 -0.88 1.55 -0.45 0.08 -0.02 1.63 -0.49 2.79 -0.86 0.17 -0.05 0.28 -0.09 3.24 -1.04 1.12 -0.37 0.49 -0.16 3.22 -1.11 0.91 -0.32 3.91 -1.41 0.7 -0.26 0.89 -0.34 3.19 -1.22 0.5 -0.2 4.27 -1.72 0.29 -0.12 1.29 -0.54c38.78,-16.28 74.77,-41.75 105.43,-76.23l0.91 -1.02 0.84 -0.96 0.06 -0.07 0.9 -1.03 0.89 -1.03 0.47 -0.54 0.43 -0.51 0.89 -1.04 0.88 -1.05 0.1 -0.12 0.78 -0.94 0.88 -1.06 0.62 -0.74 0.26 -0.33 0.87 -1.08 0.87 -1.07 0.25 -0.31 0.62 -0.78 0.86 -1.09 0.75 -0.94 0.11 -0.15 0.86 -1.1 0.85 -1.1 0.39 -0.5 0.46 -0.61 0.85 -1.12 0.84 -1.12 0.04 -0.04 0.8 -1.08 0.84 -1.13 0.52 -0.71 0.31 -0.43 0.83 -1.14 0.83 -1.14 0.17 -0.25 2.11 -2.99 0.17 -0.23 0.81 -1.17 0.81 -1.17 0.31 -0.45 0.49 -0.73 0.81 -1.18 0.77 -1.15 0.02 -0.04 0.8 -1.19 0.78 -1.2 0.44 -0.66 0.35 -0.54 0.78 -1.21 0.78 -1.21 0.11 -0.17 0.67 -1.05 1.32 -2.12 0.21 -0.33 1.53 -2.47 0.23 -0.39 0.52 -0.86 0.76 -1.25 0.67 -1.12 0.07 -0.13 0.75 -1.26 0.74 -1.26 0.36 -0.62 0.38 -0.65 0.73 -1.28 0.73 -1.28 0.05 -0.09 0.67 -1.2 0.72 -1.29 0.47 -0.85 0.25 -0.44 0.71 -1.3 0.71 -1.31 0.17 -0.32 0.54 -0.99 0.7 -1.32 0.58 -1.09 0.12 -0.23 0.69 -1.32 0.69 -1.33 0.28 -0.56 0.4 -0.78 0.68 -1.34 0.68 -1.35c3.72,-7.45 3.72,-16.21 0,-23.66l-2.71 -5.31 -0.52 -1 -2 -3.76 -0.2 -0.38 -0.05 -0.1 -0.23 -0.41 -1.96 -3.58 -0.65 -1.16 -2.78 -4.88 -0.12 -0.19 -2.22 -3.77 -0.73 -1.22 -0.46 -0.74 -1.19 -1.95 -1.2 -1.94 -0.17 -0.28 -1.04 -1.64c-1.62,-2.56 -3.27,-5.09 -4.94,-7.58l-0.24 -0.35 -1.02 -1.51 -1.26 -1.84 -0.91 -1.32 -0.37 -0.52 -1.28 -1.82 -1.29 -1.81 -0.31 -0.43 -0.04 -0.05 -2.26 -3.1 -1 -1.35 -0.32 -0.42 -1.33 -1.76 -1.33 -1.75 -0.38 -0.49 -0.97 -1.24 -1.35 -1.72 -1.1 -1.38 -0.26 -0.32 -1.37 -1.7 -1.37 -1.68 -0.46 -0.56 -0.93 -1.11 -1.39 -1.65 -1.2 -1.41 -0.2 -0.24 -2.76 -3.16 -0.07 -0.08 -0.53 -0.61 -0.89 -1 -2.58 -2.84 -0.15 -0.17 -0.14 -0.15 -1.45 -1.57 -1.45 -1.55 -0.62 -0.66 -0.84 -0.88 -1.47 -1.53 -1.4 -1.44 -0.08 -0.07 -1.48 -1.5 -1.49 -1.49 -0.71 -0.7 -0.79 -0.77 -1.51 -1.47 -1.5 -1.44 -0.01 0 -1.52 -1.44 -1.52 -1.42 -0.8 -0.74 -0.74 -0.67 -1.54 -1.4 -1.54 -1.38 -0.07 -0.07 -1.49 -1.3 -1.56 -1.36 -0.89 -0.77 -0.67 -0.57 -1.58 -1.34 -1.57 -1.31 -0.15 -0.13 -1.44 -1.18c-36.04,-29.46 -76.96,-48.87 -119.57,-57.91l-0.87 -0.18 -0.13 -0.03 -0.73 -0.15 -0.87 -0.18 -0.87 -0.17 -0.4 -0.08 -0.46 -0.09 -0.87 -0.17 -0.87 -0.17 -0.67 -0.12 -0.2 -0.04 -0.87 -0.16 -0.87 -0.15 -0.87 -0.16 -0.07 -0.01 -0.8 -0.14 -0.87 -0.15 -0.87 -0.14 -0.34 -0.06 -0.54 -0.08 -0.87 -0.14 -0.87 -0.14 -0.61 -0.09 -0.26 -0.04 -2.63 -0.39 -0.87 -0.12 -0.87 -0.12 -0.88 -0.12 -0.27 -0.03 -0.61 -0.08 -0.87 -0.11 -0.88 -0.11 -0.54 -0.06 -0.33 -0.04 -2.57 -0.29 -0.06 -0.01 -2.64 -0.27 -0.2 -0.02 -0.68 -0.07 -0.88 -0.08 -0.87 -0.08 -0.48 -0.04 -0.4 -0.04 -0.88 -0.07 -0.88 -0.07 -0.75 -0.06 -0.13 -0.01 -0.88 -0.06 -0.88 -0.06 -0.88 -0.06 -0.14 -0.01 -0.74 -0.05 -0.89 -0.05 -0.88 -0.05 -0.4 -0.03 -0.48 -0.02 -0.88 -0.05 -0.88 -0.04 -0.68 -0.03 -0.2 -0.01 -0.88 -0.03 -0.89 -0.04 -0.88 -0.03 -0.07 0 -0.81 -0.02 -0.88 -0.03 -0.89 -0.02 -0.34 -0.01 -0.54 -0.01 -0.88 -0.01 -0.89 -0.02 -0.61 0 -0.27 -0.01 -0.88 0 -0.89 -0.01 -0.88 0 -0.88 0 -0.89 0.01 -1.76 0.01 -0.89 0.02 -0.42 0 -0.46 0.01 -0.88 0.02 -1.77 0.05 -0.88 0.02 -0.84 0.03 -0.04 0 -0.89 0.04 -3.52 0.16 -0.39 0.02 -0.49 0.03 -0.88 0.05 -1.77 0.11 -0.88 0.06 -0.8 0.05 -0.08 0.01 -0.88 0.06 -0.88 0.07 -2.64 0.22 -0.34 0.03 -0.53 0.05 -4.28 0.43 -0.12 0.01 -4.38 0.51 -0.3 0.04 -0.57 0.07 -4.23 0.58 -0.15 0.02 -3.49 0.53 -0.87 0.14 -0.27 0.04 -0.61 0.1 -3.48 0.6 -0.68 0.12 -0.19 0.03 -2.61 0.49 -0.87 0.17 -0.86 0.17 -0.23 0.04 -0.64 0.13 -0.87 0.18 -0.86 0.18 -0.87 0.18c-39.45,8.36 -77.45,25.63 -111.44,51.5zm167.65 48.08c43.66,0 79.05,35.39 79.05,79.05 0,43.66 -35.39,79.05 -79.05,79.05 -43.66,0 -79.05,-35.39 -79.05,-79.05 0,-43.66 35.39,-79.05 79.05,-79.05zm-7.61 -52.42l0.14 0 0 -0.01 0.14 0 0.28 -0.01 0.14 0 0.55 -0.02 0.14 0 0.98 -0.03 0.14 0 0.28 -0.01 0.13 0 0.28 -0.01 0.14 0 0.14 0 0.14 -0.01 0.14 0 0.07 0 0.07 0 0.14 0 0.14 0 0.14 -0.01 0.13 0 0.14 0 0.14 0 0.14 0 0.28 -0.01 0.14 0 0.14 0 0.14 0 0.14 0 0.13 0 0.14 0 0.42 -0.01 0.14 0 0.14 0 0.14 0 0.13 0 0.14 0 0.14 0 0.14 0 0.14 0 0.14 0 0.14 0 0.14 0 0.14 0 0.13 0 0.14 0 0.14 0 0.14 0 0.14 0 0.14 0 0.14 0.01 0.14 0 0.13 0 0.14 0 0.14 0 0.14 0 0.02 0 0.12 0 0.14 0 0.14 0.01 0.14 0 0.14 0 0.14 0 0.13 0 0.14 0.01 0.14 0 0.14 0 0.14 0 0.14 0 0.14 0.01 0.14 0 0.14 0 0.14 0 0.02 0.01 0.12 0 0.13 0 0.14 0 0.14 0.01 0.14 0 0.14 0 0.14 0.01 0.14 0 0.14 0 0.14 0.01 0.14 0 0.14 0.01 0.14 0 0.13 0 0.14 0.01 0.14 0 0.04 0 0.1 0.01 0.14 0 0.14 0 0.14 0.01 0.14 0 0.14 0.01 0.14 0 0.14 0.01 0.14 0 0.13 0.01 0.14 0 0.14 0.01c44.78,1.75 90.18,17.48 129.49,48.19l0.31 0.24 0.95 0.75 1.25 1 1 0.8 0.25 0.2 2.49 2.05 0.43 0.36 0.81 0.68 1.23 1.05 1.1 0.95 0.13 0.11 2.99 2.64 0.67 0.6 1.21 1.1 1.21 1.11c1.9,1.77 3.79,3.57 5.66,5.41l0.3 0.3 0.12 0.11 1.06 1.06 1.17 1.18 0.76 0.77 0.41 0.42 1.16 1.2 1.16 1.22 0.23 0.24 0.1 0.1 1.97 2.11 0.86 0.93 0.29 0.32 1.13 1.25 1.14 1.27 0.33 0.38 0.79 0.89 1.12 1.29 0.95 1.09 0.17 0.2 1.11 1.31 4.33 5.25 0.06 0.07 1.08 1.36 1.08 1.37 0.53 0.68 0.54 0.69 1.83 2.4 0.29 0.39 0.06 0.07 1 1.34 4.15 5.74 0.15 0.22 1.89 2.71 0.71 1.04 0.3 0.44 1.01 1.5 1 1.5 0.24 0.37 0.75 1.14 1.58 2.46 0.19 0.29 0.19 0.31 0.22 0.35 1.58 2.52 0.14 0.23 0.34 0.54 0.62 1.02 0.96 1.58 0.85 1.42 0.09 0.16 0.94 1.6 0.93 1.61 0.42 0.72 0.51 0.89 1.83 3.27 -0.49 0.88 -0.49 0.87 -0.49 0.87 -0.16 0.3 -0.33 0.57 -0.5 0.87 -0.49 0.86 -0.34 0.58 -0.16 0.28 -1.51 2.56 -0.01 0.01 -0.5 0.84 -1.01 1.68 -0.19 0.3 -0.33 0.54 -1.03 1.67 -0.36 0.57 -0.16 0.26 -0.52 0.83 -0.52 0.82 -0.52 0.82 -0.02 0.02 -0.51 0.8 -0.52 0.81 -0.73 1.11 -0.33 0.51 -0.54 0.81 -2.69 3.98 -0.03 0.03c-33.23,48.29 -76.43,79.9 -122.54,95.59l-0.66 0.22 -0.45 0.15 -1.12 0.37 -1.11 0.36 -0.92 0.29 -0.2 0.07 -2.23 0.69 -1.12 0.34 -0.06 0.02 -1.06 0.31c-2.06,0.61 -4.13,1.18 -6.2,1.72l-0.54 0.14 -2.25 0.57 -0.85 0.21 -0.28 0.07 -3.37 0.78 -0.01 0.01c-2.27,0.52 -4.52,0.98 -6.8,1.42l-0.5 0.09 -0.63 0.12 -1.13 0.21 -1.14 0.2 -0.77 0.14 -0.36 0.06 -1.14 0.19 -1.14 0.19 -1.03 0.16 -0.1 0.01 -0.32 0.05 -1.96 0.29 -1.14 0.16 -0.16 0.02 -2.11 0.28 -1.14 0.15 -0.43 0.05 -0.71 0.08 -1.14 0.13 -1.14 0.13 -0.69 0.07 -0.45 0.04 -1.14 0.11 -1.14 0.11 -0.95 0.08 -0.19 0.02 -1.14 0.09 -1.14 0.09 -1.14 0.08 -0.08 0.01 -1.06 0.07 -1.14 0.07 -1.14 0.06 -0.35 0.02 -0.79 0.04 -2.28 0.09 -0.61 0.02 -0.53 0.02 -1.14 0.03 -1.14 0.03 -0.88 0.02 -0.26 0 -1.14 0.02 -1.14 0.01 -1.14 0 -1.09 0 -1.09 -0.01 -1.08 -0.01 -0.42 -0.01 -0.67 -0.01 -1.09 -0.03 -1.09 -0.03 -0.84 -0.03 -1.33 -0.05 -1.09 -0.04 -1.09 -0.05 -0.17 -0.01 -0.92 -0.05 -1.09 -0.07 -1.09 -0.06 -0.59 -0.04 -0.5 -0.04 -1.09 -0.08 -1.08 -0.08 -1.02 -0.09 -0.07 0 -1.09 -0.1 -1.09 -0.1 -1.09 -0.11 -0.34 -0.03 -0.74 -0.08 -1.09 -0.12 -1.09 -0.12 -0.76 -0.09 -0.33 -0.04 -1.08 -0.14 -1.09 -0.14 -1.09 -0.14 -0.09 -0.02 -0.99 -0.14 -1.09 -0.15 -1.08 -0.16 -0.52 -0.08 -0.57 -0.09 -1.08 -0.18 -1.09 -0.18 -0.93 -0.15 -0.15 -0.03 -1.08 -0.19 -1.09 -0.2 -1.08 -0.2 -0.27 -0.05 -3.66 -0.73 -0.39 -0.08 -1.08 -0.23 -2.16 -0.47 -0.02 -0.01 -1.06 -0.24 -1.08 -0.25 -1.07 -0.26 -0.44 -0.1 -0.64 -0.16 -1.08 -0.27 -1.07 -0.27 -0.85 -0.22 -0.22 -0.06 -1.08 -0.29 -1.07 -0.29 -1.07 -0.29 -0.19 -0.06 -1.95 -0.55 -1.07 -0.31 -0.61 -0.18 -0.46 -0.14 -1.07 -0.33 -1.06 -0.33 -1.02 -0.32 -0.05 -0.01 -2.13 -0.69 -1.06 -0.35c-37.97,-12.69 -74,-36.15 -104.16,-70.83l-0.1 -0.11 -0.5 -0.58 -0.6 -0.69 -0.59 -0.7 -1.15 -1.35 -0.04 -0.05 -0.59 -0.7 -0.52 -0.63 -0.07 -0.08 -0.58 -0.71 -0.59 -0.72 -0.58 -0.71 -0.15 -0.18 -0.44 -0.54 -0.58 -0.73 -0.58 -0.72 -0.35 -0.44 -0.22 -0.29 -0.58 -0.73 -0.57 -0.74 -0.56 -0.7 -0.02 -0.03 -0.57 -0.74 -0.57 -0.75 -0.56 -0.74 -0.19 -0.24 -0.38 -0.51 -0.56 -0.76 -0.57 -0.75 -0.38 -0.52 -0.18 -0.24 -0.56 -0.76 -0.55 -0.76 -0.56 -0.77 -0.03 -0.03 -0.52 -0.74 -0.56 -0.78 -0.55 -0.77 -0.22 -0.31 -0.33 -0.47 -0.54 -0.78 -0.55 -0.79 -0.42 -0.6 -0.12 -0.19 -0.54 -0.79 -0.54 -0.79 -0.54 -0.8 -0.07 -0.09 -0.47 -0.71 -0.53 -0.8 -0.54 -0.81 -0.25 -0.38 -0.28 -0.42 -0.53 -0.82 -0.52 -0.81 -0.45 -0.69 -0.08 -0.13 -0.52 -0.82 -0.52 -0.82 -0.52 -0.83 -0.11 -0.16 -0.41 -0.67 -0.52 -0.83 -0.51 -0.84 -0.29 -0.47 -0.23 -0.37 -0.51 -0.84 -0.5 -0.84 -0.47 -0.78 -0.04 -0.07 -0.51 -0.85 -0.5 -0.85 -0.5 -0.86 -0.14 -0.24 -0.36 -0.62 -0.49 -0.86 -0.5 -0.87 -0.32 -0.55 -0.17 -0.32 -0.49 -0.87 -0.49 -0.87 -0.49 -0.88 1.01 -1.81 1.01 -1.79 0.32 -0.56 0.7 -1.22 1.03 -1.77 0.65 -1.1 0.39 -0.65 1.05 -1.74 0.99 -1.63 0.07 -0.1 1.06 -1.72 1.07 -1.7 0.27 -0.43 0.81 -1.26 1.09 -1.68 0.62 -0.95 0.47 -0.72 2.08 -3.09 0.13 -0.2 2.25 -3.24 0.22 -0.31 2.63 -3.68 0.57 -0.78 1.73 -2.34 0.37 -0.5 0.22 -0.28 1.17 -1.54 1.17 -1.53 0.16 -0.2 1.03 -1.31 1.19 -1.51 0.53 -0.66 0.66 -0.82 1.21 -1.48 0.92 -1.11 0.29 -0.36 2.44 -2.89 0.09 -0.1 2.86 -3.27 0.77 -0.87 1.25 -1.39 0.87 -0.96 0.38 -0.41 1.27 -1.37 1.27 -1.35 0.01 -0.01 2.55 -2.66 0.41 -0.42 0.87 -0.89 1.3 -1.3 0.82 -0.82 0.48 -0.47 2.55 -2.47 0.07 -0.07 2.64 -2.49 0.34 -0.32 0.99 -0.91 1.33 -1.21 0.77 -0.69 3.12 -2.75 0.15 -0.13 1.36 -1.17 1.36 -1.15 0.27 -0.23 1.09 -0.91 1.38 -1.13 0.7 -0.57 0.67 -0.54 1.39 -1.11 1.14 -0.9 0.24 -0.19 1.4 -1.07 1.39 -1.07 0.2 -0.15 1.21 -0.9 2.04 -1.51 0.77 -0.56 1.42 -1.02c37.51,-26.7 79.81,-40.53 121.96,-41.99z"/>
 </g>
</svg>
